<?xml version="1.0" encoding="UTF-8"?>
<svg width="50px" height="57px" viewBox="0 0 50 57" version="1.1" xmlns="http://www.w3.org/2000/svg" xmlns:xlink="http://www.w3.org/1999/xlink">
    <!-- Generator: Sketch 43.2 (39069) - http://www.bohemiancoding.com/sketch -->
    <title>icon-martk</title>
    <desc>Created with Sketch.</desc>
    <defs>
        <path d="M20,46.4570312 C23.0605469,46.4570312 40,31.045695 40,20 C40,8.954305 31.045695,0 20,0 C8.954305,0 0,8.954305 0,20 C0,31.045695 16.9394531,46.4570312 20,46.4570312 Z" id="path-1"></path>
        <filter x="-22.5%" y="-15.1%" width="145.0%" height="138.7%" filterUnits="objectBoundingBox" id="filter-2">
            <feMorphology radius="2" operator="dilate" in="SourceAlpha" result="shadowSpreadOuter1"></feMorphology>
            <feOffset dx="0" dy="2" in="shadowSpreadOuter1" result="shadowOffsetOuter1"></feOffset>
            <feGaussianBlur stdDeviation="2" in="shadowOffsetOuter1" result="shadowBlurOuter1"></feGaussianBlur>
            <feComposite in="shadowBlurOuter1" in2="SourceAlpha" operator="out" result="shadowBlurOuter1"></feComposite>
            <feColorMatrix values="0 0 0 0 0   0 0 0 0 0   0 0 0 0 0  0 0 0 0.5 0" type="matrix" in="shadowBlurOuter1"></feColorMatrix>
        </filter>
    </defs>
    <g id="Welcome" stroke="none" stroke-width="1" fill="none" fill-rule="evenodd">
        <g id="Mobile-Portrait" transform="translate(-79.000000, -495.000000)">
            <g id="icon-martk" transform="translate(84.000000, 498.000000)">
                <g id="Oval-Copy">
                    <use fill="black" fill-opacity="1" filter="url(#filter-2)" xlink:href="#path-1"></use>
                    <use stroke="#FFFFFF" stroke-width="4" fill="#8997C4" fill-rule="evenodd" xlink:href="#path-1"></use>
                </g>
                <g id="market" transform="translate(7.000000, 7.000000)" fill-rule="nonzero" fill="#FFFFFF">
                    <g id="Group">
                        <path d="M23.5733333,22.1577778 L22.5333333,22.1577778 L22.5333333,16.2355556 C22.36,16.2644444 22.1288889,16.2933333 21.9844444,16.2933333 C21.84,16.3222222 21.6955556,16.3222222 21.5511111,16.3222222 C21.0022222,16.3222222 20.4533333,16.2355556 19.9044444,16.0911111 L19.9044444,22.1577778 L6.09555556,22.1577778 L6.09555556,16.0911111 C5.54666667,16.2355556 4.99777778,16.3222222 4.44888889,16.3222222 L4.01555556,16.3222222 C3.84222222,16.3222222 3.64,16.2933333 3.46666667,16.2644444 L3.46666667,22.1866667 L2.42666667,22.1866667 C1.76222222,22.2155556 1.24222222,22.7644444 1.21333333,23.4 C1.15555556,24.1222222 1.70444444,24.7577778 2.42666667,24.7866667 L23.5733333,24.7866667 C24.2377778,24.7577778 24.7577778,24.2088889 24.7866667,23.5733333 C24.8444444,22.8222222 24.2955556,22.2155556 23.5733333,22.1577778 Z" id="Shape"></path>
                        <path d="M22.3888889,1.79111111 C21.9266667,0.751111111 20.8866667,0.0866666667 19.76,0.0866666667 L6.24,0.0866666667 C5.11333333,0.0866666667 4.07333333,0.751111111 3.61111111,1.79111111 L0.635555556,8.37777778 C0.0577777778,9.67777778 0.144444444,11.18 0.866666667,12.3933333 C1.56,13.5777778 2.77333333,14.3577778 4.16,14.4444444 L4.44888889,14.4444444 C5.48888889,14.4444444 6.5,14.0688889 7.30888889,13.3755556 C8.95555556,14.7622222 11.3533333,14.7911111 13,13.4044444 C14.6466667,14.7911111 17.0444444,14.7622222 18.6911111,13.3755556 C19.5,14.04 20.4822222,14.4155556 21.5511111,14.4155556 L21.84,14.4155556 C23.1977778,14.3288889 24.44,13.5777778 25.1044444,12.3933333 C25.8266667,11.18 25.9133333,9.67777778 25.3355556,8.37777778 L22.3888889,1.79111111 Z M22.9377778,11.0933333 C22.6777778,11.5555556 22.2155556,11.8444444 21.6666667,11.9022222 L21.5222222,11.9022222 C20.8,11.9022222 20.1355556,11.4688889 19.8177778,10.8333333 C19.7022222,10.5733333 19.4711111,10.3422222 19.2111111,10.2266667 C18.5755556,9.93777778 17.8244444,10.1977778 17.5355556,10.8333333 C17.2177778,11.4977778 16.5533333,11.9311111 15.8311111,11.9311111 C15.1088889,11.9311111 14.4444444,11.5266667 14.1266667,10.8622222 C14.0111111,10.6022222 13.8088889,10.4 13.5488889,10.2844444 C12.9133333,9.96666667 12.1622222,10.2266667 11.8444444,10.8622222 C11.5266667,11.4977778 10.8622222,11.9311111 10.14,11.9311111 C9.41777778,11.9311111 8.75333333,11.4977778 8.43555556,10.8333333 C8.32,10.5733333 8.08888889,10.3422222 7.82888889,10.2266667 C7.19333333,9.93777778 6.44222222,10.1977778 6.15333333,10.8333333 C5.83555556,11.4977778 5.17111111,11.9022222 4.44888889,11.9022222 L4.33333333,11.9022222 C3.81333333,11.8733333 3.32222222,11.5555556 3.06222222,11.0933333 C2.77333333,10.6022222 2.71555556,9.96666667 2.97555556,9.41777778 L5.95111111,2.80222222 C6.00888889,2.65777778 6.15333333,2.6 6.26888889,2.6 L19.76,2.6 C19.9044444,2.6 20.02,2.68666667 20.0777778,2.80222222 L23.0533333,9.41777778 L23.0533333,9.41777778 C23.2844444,9.96666667 23.2555556,10.6022222 22.9377778,11.0933333 Z" id="Shape"></path>
                    </g>
                </g>
            </g>
        </g>
    </g>
</svg>