<?xml version="1.0" encoding="UTF-8"?>
<svg width="42px" height="47px" viewBox="0 0 42 47" version="1.1" xmlns="http://www.w3.org/2000/svg" xmlns:xlink="http://www.w3.org/1999/xlink">
    <!-- Generator: Sketch 43.2 (39069) - http://www.bohemiancoding.com/sketch -->
    <title>icon-cart</title>
    <desc>Created with Sketch.</desc>
    <defs>
        <path d="M16,37.165625 C18.4484375,37.165625 32,24.836556 32,16 C32,7.163444 24.836556,0 16,0 C7.163444,0 0,7.163444 0,16 C0,24.836556 13.5515625,37.165625 16,37.165625 Z" id="path-1"></path>
        <filter x="-26.6%" y="-17.5%" width="153.1%" height="145.7%" filterUnits="objectBoundingBox" id="filter-2">
            <feMorphology radius="1.5" operator="dilate" in="SourceAlpha" result="shadowSpreadOuter1"></feMorphology>
            <feOffset dx="0" dy="2" in="shadowSpreadOuter1" result="shadowOffsetOuter1"></feOffset>
            <feGaussianBlur stdDeviation="2" in="shadowOffsetOuter1" result="shadowBlurOuter1"></feGaussianBlur>
            <feComposite in="shadowBlurOuter1" in2="SourceAlpha" operator="out" result="shadowBlurOuter1"></feComposite>
            <feColorMatrix values="0 0 0 0 0   0 0 0 0 0   0 0 0 0 0  0 0 0 0.5 0" type="matrix" in="shadowBlurOuter1"></feColorMatrix>
        </filter>
    </defs>
    <g id="Welcome" stroke="none" stroke-width="1" fill="none" fill-rule="evenodd">
        <g id="Mobile-Portrait" transform="translate(-136.000000, -495.000000)">
            <g id="icon-cart" transform="translate(141.000000, 498.000000)">
                <g id="Oval-Copy">
                    <use fill="black" fill-opacity="1" filter="url(#filter-2)" xlink:href="#path-1"></use>
                    <use stroke="#FFFFFF" stroke-width="3" fill="#C48A89" fill-rule="evenodd" xlink:href="#path-1"></use>
                </g>
                <g id="noun_1079174_cc" transform="translate(4.000000, 6.400000)" fill-rule="nonzero" fill="#FFFFFF">
                    <g id="Group">
                        <path d="M9.3,17.399679 C9.92,17.399679 10.4272727,16.8796148 10.4272727,16.2439807 L10.4272727,10.4654896 C10.4272727,9.82985554 9.92,9.30979133 9.3,9.30979133 C8.68,9.30979133 8.17272727,9.82985554 8.17272727,10.4654896 L8.17272727,16.2439807 C8.17272727,16.8796148 8.68,17.399679 9.3,17.399679 Z" id="Shape"></path>
                        <path d="M12.4,17.399679 C13.02,17.399679 13.5272727,16.8796148 13.5272727,16.2439807 L13.5272727,10.4654896 C13.5272727,9.82985554 13.02,9.30979133 12.4,9.30979133 C11.78,9.30979133 11.2727273,9.82985554 11.2727273,10.4654896 L11.2727273,16.2439807 C11.2727273,16.8796148 11.78,17.399679 12.4,17.399679 Z" id="Shape"></path>
                        <path d="M15.5,17.399679 C16.12,17.399679 16.6272727,16.8796148 16.6272727,16.2439807 L16.6272727,10.4654896 C16.6272727,9.82985554 16.12,9.30979133 15.5,9.30979133 C14.88,9.30979133 14.3727273,9.82985554 14.3727273,10.4654896 L14.3727273,16.2439807 C14.3727273,16.8796148 14.88,17.399679 15.5,17.399679 Z" id="Shape"></path>
                        <path d="M2.22636364,9.02086677 L4.81909091,19.1332263 C4.96,19.6532905 5.41090909,20 5.91818182,20 L18.8818182,20 C19.3890909,20 19.84,19.6532905 19.9809091,19.1332263 L22.5736364,9.02086677 L23.6727273,9.02086677 C24.2927273,9.02086677 24.8,8.50080257 24.8,7.86516854 C24.8,7.22953451 24.2927273,6.7094703 23.6727273,6.7094703 L21.7,6.7094703 L19.4736364,6.7094703 L15.3027273,0.555377207 C14.9363636,0.0353130016 14.2318182,-0.109149278 13.7245455,0.266452648 C13.2172727,0.642054575 13.0763636,1.36436597 13.4427273,1.88443018 L16.7118182,6.7094703 L8.08818182,6.7094703 L11.3572727,1.88443018 C11.7236364,1.36436597 11.5827273,0.642054575 11.0754545,0.266452648 C10.5681818,-0.109149278 9.86363636,0.0353130016 9.49727273,0.555377207 L5.32636364,6.7094703 L3.1,6.7094703 L1.12727273,6.7094703 C0.507272727,6.7094703 0,7.22953451 0,7.86516854 C0,8.50080257 0.507272727,9.02086677 1.12727273,9.02086677 L2.22636364,9.02086677 Z M20.2345455,9.02086677 L18.0081818,17.6886035 L6.79181818,17.6886035 L4.56545455,9.02086677 L20.2345455,9.02086677 Z" id="Shape"></path>
                    </g>
                </g>
            </g>
        </g>
    </g>
</svg>