<?xml version="1.0" encoding="UTF-8"?>
<svg width="50px" height="57px" viewBox="0 0 50 57" version="1.1" xmlns="http://www.w3.org/2000/svg" xmlns:xlink="http://www.w3.org/1999/xlink">
    <!-- Generator: Sketch 43.2 (39069) - http://www.bohemiancoding.com/sketch -->
    <title>icon-cart</title>
    <desc>Created with Sketch.</desc>
    <defs>
        <path d="M20,46.4570312 C23.0605469,46.4570312 40,31.045695 40,20 C40,8.954305 31.045695,0 20,0 C8.954305,0 0,8.954305 0,20 C0,31.045695 16.9394531,46.4570312 20,46.4570312 Z" id="path-1"></path>
        <filter x="-22.5%" y="-15.1%" width="145.0%" height="138.7%" filterUnits="objectBoundingBox" id="filter-2">
            <feMorphology radius="2" operator="dilate" in="SourceAlpha" result="shadowSpreadOuter1"></feMorphology>
            <feOffset dx="0" dy="2" in="shadowSpreadOuter1" result="shadowOffsetOuter1"></feOffset>
            <feGaussianBlur stdDeviation="2" in="shadowOffsetOuter1" result="shadowBlurOuter1"></feGaussianBlur>
            <feComposite in="shadowBlurOuter1" in2="SourceAlpha" operator="out" result="shadowBlurOuter1"></feComposite>
            <feColorMatrix values="0 0 0 0 0   0 0 0 0 0   0 0 0 0 0  0 0 0 0.5 0" type="matrix" in="shadowBlurOuter1"></feColorMatrix>
        </filter>
    </defs>
    <g id="Welcome" stroke="none" stroke-width="1" fill="none" fill-rule="evenodd">
        <g id="Mobile-Portrait" transform="translate(-136.000000, -495.000000)">
            <g id="icon-cart" transform="translate(141.000000, 498.000000)">
                <g id="Oval-Copy">
                    <use fill="black" fill-opacity="1" filter="url(#filter-2)" xlink:href="#path-1"></use>
                    <use stroke="#FFFFFF" stroke-width="4" fill="#C48A89" fill-rule="evenodd" xlink:href="#path-1"></use>
                </g>
                <g id="noun_1079174_cc" transform="translate(5.000000, 8.000000)" fill-rule="nonzero" fill="#FFFFFF">
                    <g id="Group">
                        <path d="M11.625,21.7495987 C12.4,21.7495987 13.0340909,21.0995185 13.0340909,20.3049759 L13.0340909,13.081862 C13.0340909,12.2873194 12.4,11.6372392 11.625,11.6372392 C10.85,11.6372392 10.2159091,12.2873194 10.2159091,13.081862 L10.2159091,20.3049759 C10.2159091,21.0995185 10.85,21.7495987 11.625,21.7495987 Z" id="Shape"></path>
                        <path d="M15.5,21.7495987 C16.275,21.7495987 16.9090909,21.0995185 16.9090909,20.3049759 L16.9090909,13.081862 C16.9090909,12.2873194 16.275,11.6372392 15.5,11.6372392 C14.725,11.6372392 14.0909091,12.2873194 14.0909091,13.081862 L14.0909091,20.3049759 C14.0909091,21.0995185 14.725,21.7495987 15.5,21.7495987 Z" id="Shape"></path>
                        <path d="M19.375,21.7495987 C20.15,21.7495987 20.7840909,21.0995185 20.7840909,20.3049759 L20.7840909,13.081862 C20.7840909,12.2873194 20.15,11.6372392 19.375,11.6372392 C18.6,11.6372392 17.9659091,12.2873194 17.9659091,13.081862 L17.9659091,20.3049759 C17.9659091,21.0995185 18.6,21.7495987 19.375,21.7495987 Z" id="Shape"></path>
                        <path d="M2.78295455,11.2760835 L6.02386364,23.9165329 C6.2,24.5666132 6.76363636,25 7.39772727,25 L23.6022727,25 C24.2363636,25 24.8,24.5666132 24.9761364,23.9165329 L28.2170455,11.2760835 L29.5909091,11.2760835 C30.3659091,11.2760835 31,10.6260032 31,9.83146067 C31,9.03691814 30.3659091,8.38683788 29.5909091,8.38683788 L27.125,8.38683788 L24.3420455,8.38683788 L19.1284091,0.694221509 C18.6704545,0.044141252 17.7897727,-0.136436597 17.1556818,0.333065811 C16.5215909,0.802568218 16.3454545,1.70545746 16.8034091,2.35553772 L20.8897727,8.38683788 L10.1102273,8.38683788 L14.1965909,2.35553772 C14.6545455,1.70545746 14.4784091,0.802568218 13.8443182,0.333065811 C13.2102273,-0.136436597 12.3295455,0.044141252 11.8715909,0.694221509 L6.65795455,8.38683788 L3.875,8.38683788 L1.40909091,8.38683788 C0.634090909,8.38683788 0,9.03691814 0,9.83146067 C0,10.6260032 0.634090909,11.2760835 1.40909091,11.2760835 L2.78295455,11.2760835 Z M25.2931818,11.2760835 L22.5102273,22.1107544 L8.48977273,22.1107544 L5.70681818,11.2760835 L25.2931818,11.2760835 Z" id="Shape"></path>
                    </g>
                </g>
            </g>
        </g>
    </g>
</svg>