<?xml version="1.0" encoding="UTF-8"?>
<svg width="42px" height="47px" viewBox="0 0 42 47" version="1.1" xmlns="http://www.w3.org/2000/svg" xmlns:xlink="http://www.w3.org/1999/xlink">
    <!-- Generator: Sketch 43.2 (39069) - http://www.bohemiancoding.com/sketch -->
    <title>icon-martk</title>
    <desc>Created with Sketch.</desc>
    <defs>
        <path d="M16,37.165625 C18.4484375,37.165625 32,24.836556 32,16 C32,7.163444 24.836556,0 16,0 C7.163444,0 0,7.163444 0,16 C0,24.836556 13.5515625,37.165625 16,37.165625 Z" id="path-1"></path>
        <filter x="-26.6%" y="-17.5%" width="153.1%" height="145.7%" filterUnits="objectBoundingBox" id="filter-2">
            <feMorphology radius="1.5" operator="dilate" in="SourceAlpha" result="shadowSpreadOuter1"></feMorphology>
            <feOffset dx="0" dy="2" in="shadowSpreadOuter1" result="shadowOffsetOuter1"></feOffset>
            <feGaussianBlur stdDeviation="2" in="shadowOffsetOuter1" result="shadowBlurOuter1"></feGaussianBlur>
            <feComposite in="shadowBlurOuter1" in2="SourceAlpha" operator="out" result="shadowBlurOuter1"></feComposite>
            <feColorMatrix values="0 0 0 0 0   0 0 0 0 0   0 0 0 0 0  0 0 0 0.5 0" type="matrix" in="shadowBlurOuter1"></feColorMatrix>
        </filter>
    </defs>
    <g id="Welcome" stroke="none" stroke-width="1" fill="none" fill-rule="evenodd">
        <g id="Mobile-Portrait" transform="translate(-79.000000, -495.000000)">
            <g id="icon-martk" transform="translate(84.000000, 498.000000)">
                <g id="Oval-Copy">
                    <use fill="black" fill-opacity="1" filter="url(#filter-2)" xlink:href="#path-1"></use>
                    <use stroke="#FFFFFF" stroke-width="3" fill="#8997C4" fill-rule="evenodd" xlink:href="#path-1"></use>
                </g>
                <g id="market" transform="translate(5.600000, 5.600000)" fill-rule="nonzero" fill="#FFFFFF">
                    <g id="Group">
                        <path d="M18.8586667,17.7262222 L18.0266667,17.7262222 L18.0266667,12.9884444 C17.888,13.0115556 17.7031111,13.0346667 17.5875556,13.0346667 C17.472,13.0577778 17.3564444,13.0577778 17.2408889,13.0577778 C16.8017778,13.0577778 16.3626667,12.9884444 15.9235556,12.8728889 L15.9235556,17.7262222 L4.87644444,17.7262222 L4.87644444,12.8728889 C4.43733333,12.9884444 3.99822222,13.0577778 3.55911111,13.0577778 L3.21244444,13.0577778 C3.07377778,13.0577778 2.912,13.0346667 2.77333333,13.0115556 L2.77333333,17.7493333 L1.94133333,17.7493333 C1.40977778,17.7724444 0.993777778,18.2115556 0.970666667,18.72 C0.924444444,19.2977778 1.36355556,19.8062222 1.94133333,19.8293333 L18.8586667,19.8293333 C19.3902222,19.8062222 19.8062222,19.3671111 19.8293333,18.8586667 C19.8755556,18.2577778 19.4364444,17.7724444 18.8586667,17.7262222 Z" id="Shape"></path>
                        <path d="M17.9111111,1.43288889 C17.5413333,0.600888889 16.7093333,0.0693333333 15.808,0.0693333333 L4.992,0.0693333333 C4.09066667,0.0693333333 3.25866667,0.600888889 2.88888889,1.43288889 L0.508444444,6.70222222 C0.0462222222,7.74222222 0.115555556,8.944 0.693333333,9.91466667 C1.248,10.8622222 2.21866667,11.4862222 3.328,11.5555556 L3.55911111,11.5555556 C4.39111111,11.5555556 5.2,11.2551111 5.84711111,10.7004444 C7.16444444,11.8097778 9.08266667,11.8328889 10.4,10.7235556 C11.7173333,11.8328889 13.6355556,11.8097778 14.9528889,10.7004444 C15.6,11.232 16.3857778,11.5324444 17.2408889,11.5324444 L17.472,11.5324444 C18.5582222,11.4631111 19.552,10.8622222 20.0835556,9.91466667 C20.6613333,8.944 20.7306667,7.74222222 20.2684444,6.70222222 L17.9111111,1.43288889 Z M18.3502222,8.87466667 C18.1422222,9.24444444 17.7724444,9.47555556 17.3333333,9.52177778 L17.2177778,9.52177778 C16.64,9.52177778 16.1084444,9.17511111 15.8542222,8.66666667 C15.7617778,8.45866667 15.5768889,8.27377778 15.3688889,8.18133333 C14.8604444,7.95022222 14.2595556,8.15822222 14.0284444,8.66666667 C13.7742222,9.19822222 13.2426667,9.54488889 12.6648889,9.54488889 C12.0871111,9.54488889 11.5555556,9.22133333 11.3013333,8.68977778 C11.2088889,8.48177778 11.0471111,8.32 10.8391111,8.22755556 C10.3306667,7.97333333 9.72977778,8.18133333 9.47555556,8.68977778 C9.22133333,9.19822222 8.68977778,9.54488889 8.112,9.54488889 C7.53422222,9.54488889 7.00266667,9.19822222 6.74844444,8.66666667 C6.656,8.45866667 6.47111111,8.27377778 6.26311111,8.18133333 C5.75466667,7.95022222 5.15377778,8.15822222 4.92266667,8.66666667 C4.66844444,9.19822222 4.13688889,9.52177778 3.55911111,9.52177778 L3.46666667,9.52177778 C3.05066667,9.49866667 2.65777778,9.24444444 2.44977778,8.87466667 C2.21866667,8.48177778 2.17244444,7.97333333 2.38044444,7.53422222 L4.76088889,2.24177778 C4.80711111,2.12622222 4.92266667,2.08 5.01511111,2.08 L15.808,2.08 C15.9235556,2.08 16.016,2.14933333 16.0622222,2.24177778 L18.4426667,7.53422222 L18.4426667,7.53422222 C18.6275556,7.97333333 18.6044444,8.48177778 18.3502222,8.87466667 Z" id="Shape"></path>
                    </g>
                </g>
            </g>
        </g>
    </g>
</svg>