<svg xmlns="http://www.w3.org/2000/svg" xmlns:xlink="http://www.w3.org/1999/xlink" version="1.1" x="0px" y="0px" viewBox="0 0 100 125" width="30" height="30" style="enable-background:new 0 0 100 100;" xml:space="preserve"><g><path d="M14.8,46.1h2.5l7.1,33.4c0.1,0.7,0.8,1.2,1.5,1.2h48.2c0.7,0,1.3-0.5,1.5-1.2l7.1-33.4h2c0.8,0,1.5-0.7,1.5-1.5v-7.2   c0-0.8-0.7-1.5-1.5-1.5H73.3L62.8,20c-0.5-0.7-1.4-0.9-2.1-0.4C60,20,59.8,21,60.2,21.7l9.4,14.2H30.3l9.4-14.2   c0.5-0.7,0.3-1.6-0.4-2.1c-0.7-0.5-1.6-0.3-2.1,0.4L26.7,35.9h-12c-0.8,0-1.5,0.7-1.5,1.5v7.2C13.3,45.5,13.9,46.1,14.8,46.1z    M72.9,77.7H27.1l-6.8-31.5h59.3L72.9,77.7z M16.3,38.9h8.5L24,40c-0.5,0.7-0.3,1.6,0.4,2.1c0.3,0.2,0.5,0.2,0.8,0.2   c0.5,0,1-0.2,1.3-0.7l1.8-2.8h43.3l1.8,2.8c0.3,0.4,0.8,0.7,1.3,0.7c0.3,0,0.6-0.1,0.8-0.2c0.7-0.5,0.9-1.4,0.4-2.1l-0.7-1.1h8v4.2   h-1.8h-63h-2.3V38.9z"/><path d="M63.8,71.3c0.1,0,0.2,0,0.2,0c0.7,0,1.4-0.5,1.5-1.3L68,54.2c0.1-0.8-0.4-1.6-1.2-1.7c-0.8-0.1-1.6,0.4-1.7,1.2l-2.5,15.8   C62.4,70.4,62.9,71.2,63.8,71.3z"/><path d="M50,71.3c0.8,0,1.5-0.7,1.5-1.5V54c0-0.8-0.7-1.5-1.5-1.5c-0.8,0-1.5,0.7-1.5,1.5v15.8C48.5,70.6,49.2,71.3,50,71.3z"/><path d="M34.5,70c0.1,0.7,0.8,1.3,1.5,1.3c0.1,0,0.2,0,0.2,0c0.8-0.1,1.4-0.9,1.2-1.7L35,53.7c-0.1-0.8-0.9-1.4-1.7-1.2   c-0.8,0.1-1.4,0.9-1.2,1.7L34.5,70z"/></g><text x="0" y="115" fill="#000000" font-size="5px" font-weight="bold" font-family="'Helvetica Neue', Helvetica, Arial-Unicode, Arial, Sans-serif">Created by Mohamad Arif Prasetyo</text><text x="0" y="120" fill="#000000" font-size="5px" font-weight="bold" font-family="'Helvetica Neue', Helvetica, Arial-Unicode, Arial, Sans-serif">from the Noun Project</text></svg>