<svg xmlns="http://www.w3.org/2000/svg" xmlns:xlink="http://www.w3.org/1999/xlink" version="1.1" x="0px" y="0px" viewBox="0 0 160 200" style="enable-background:new 0 0 160 160;" xml:space="preserve"><g><rect x="96.1" y="100.5" width="25" height="20"/><rect x="111.8" y="119.1" width="15" height="4"/><path d="M76.8,66.3H88V52.6H76.8V66.3z M80.8,56.6H84v5.7h-3.3V56.6z"/><path d="M140.7,88.2c0-3.1-2.6-5.7-5.7-5.7s-5.7,2.6-5.7,5.7c0,3.1,2.6,5.7,5.7,5.7S140.7,91.4,140.7,88.2z M133.3,88.2   c0-0.9,0.8-1.7,1.7-1.7s1.7,0.8,1.7,1.7c0,0.9-0.8,1.7-1.7,1.7S133.3,89.2,133.3,88.2z"/><path d="M33.1,113.4c10.2,0,18.4-8.3,18.4-18.4s-8.3-18.4-18.4-18.4S14.7,84.9,14.7,95S22.9,113.4,33.1,113.4z M47.6,95   c0,7.9-6.5,14.4-14.4,14.4S18.7,103,18.7,95c0-8,6.5-14.4,14.4-14.4S47.6,87.1,47.6,95z"/><path d="M33.1,103.8c4.8,0,8.8-3.9,8.8-8.8c0-4.8-3.9-8.8-8.8-8.8s-8.8,3.9-8.8,8.8C24.3,99.8,28.3,103.8,33.1,103.8z M33.1,90.2   c2.6,0,4.8,2.1,4.8,4.8s-2.1,4.8-4.8,4.8s-4.8-2.1-4.8-4.8S30.5,90.2,33.1,90.2z"/><path d="M47.6,119.1c8.2-4.9,13.7-13.9,13.7-24.1c0-15.5-12.6-28.1-28.1-28.1S5,79.5,5,95c0,10.2,5.5,19.2,13.7,24.1h-6.2v2v2H106   v-2v-2H47.6z M57.2,95c0,13.3-10.8,24.1-24.1,24.1S9,108.3,9,95s10.8-24.1,24.1-24.1S57.2,81.7,57.2,95z"/><path d="M108.6,90.2V64.4H129V70c1.3-0.4,2.6-0.7,4-0.9v-7.2l-10-18.1l-0.6-0.3c0,0,0,0,0,0l-15.1-6.4l-25.3,0l-0.4,0.2   c0,0,0,0,0,0l-15.9,6.5l-10,18.1v11.8c1.5,1.6,2.9,3.4,4,5.2v-16l8.8-16l13.8-5.7l13.4,5.7l8.8,16v27.2h-11V71.7H70.8v18.5h-6.9   c0.2,1.3,0.3,2.6,0.4,4h6.6h22.8h13h2h8.1c-0.4-1.3-0.7-2.6-0.8-4H108.6z M74.8,90.2V78.1l12,12.1H74.8z M89.6,87.3L78,75.7h11.5   V87.3z M92.2,41.1h14.2l0.4,0.2l4.9,2.1h-4.9h-9.3L92.2,41.1z M107.8,60.4l-1-1.8l-6.2-11.3h6.3h13.6l7.2,13.1H107.8z"/><path d="M155,100.5h-9.3c3.4-3,5.6-7.4,5.6-12.2c0-9-7.3-16.2-16.3-16.2s-16.3,7.3-16.3,16.2c0,4.9,2.2,9.3,5.6,12.2h-17.5v4H155   v-2V100.5z M122.7,88.2c0-6.7,5.5-12.2,12.3-12.2s12.3,5.5,12.3,12.2s-5.5,12.2-12.3,12.2S122.7,95,122.7,88.2z"/></g></svg>