<svg xmlns="http://www.w3.org/2000/svg" xmlns:xlink="http://www.w3.org/1999/xlink" version="1.1" x="0px" y="0px" viewBox="0 0 100 125" enable-background="new 0 0 100 100" xml:space="preserve" width="25" height="25"><g><path d="M81.065,32.842c-3.311,0-6.307-1.609-8.146-4.173c-1.84,2.563-4.836,4.173-8.147,4.173c-3.446,0-6.553-1.745-8.367-4.493   c-1.814,2.748-4.921,4.493-8.367,4.493c-3.518,0-6.681-1.817-8.479-4.664c-1.797,2.847-4.96,4.664-8.478,4.664   c-3.411,0-6.488-1.709-8.311-4.408c-1.822,2.699-4.899,4.408-8.31,4.408c-5.497,0-9.975-4.445-10.028-9.929   c-0.032-0.299-0.12-1.161-0.12-1.738c0-0.141,0.017-0.28,0.051-0.417L8.302,5c0.496-2.465,1.019-5,3.505-5h70.39   c2.271,0,2.595,1.03,3.796,4.865l5.08,15.783c0.055,0.17,0.083,0.348,0.083,0.526c0,0.563-0.05,1.468-0.063,1.691   C91.064,28.371,86.577,32.842,81.065,32.842z M72.834,23.12h0.17c0.787,0,1.474,0.535,1.665,1.3   c0.735,2.937,3.365,4.988,6.396,4.988c3.637,0,6.595-2.958,6.595-6.595c0-0.033,0.001-0.067,0.003-0.102   c0.014-0.229,0.045-0.829,0.056-1.279L82.721,5.904c-0.334-1.066-0.615-1.964-0.806-2.471H12.213   c-0.204,0.549-0.433,1.686-0.553,2.283c-0.005,0.025-0.011,0.052-0.017,0.078L7.75,21.368c0.016,0.382,0.068,0.941,0.104,1.252   c0.007,0.064,0.011,0.129,0.011,0.193c0,3.637,2.958,6.595,6.595,6.595c3.031,0,5.661-2.052,6.396-4.988   c0.191-0.765,0.877-1.301,1.665-1.301h0.499c0.788,0,1.475,0.536,1.666,1.301c0.735,2.937,3.365,4.988,6.396,4.988   c3.032,0,5.662-2.052,6.396-4.988c0.191-0.765,0.878-1.301,1.666-1.301h0.833c0.788,0,1.475,0.536,1.666,1.301   c0.733,2.938,3.364,4.988,6.396,4.988c3.031,0,5.661-2.051,6.396-4.988c0.191-0.764,0.878-1.3,1.666-1.3h0.611   c0.788,0,1.475,0.536,1.666,1.3c0.734,2.938,3.364,4.988,6.396,4.988c3.032,0,5.662-2.051,6.396-4.988   C71.359,23.656,72.046,23.12,72.834,23.12z"/><path d="M89.439,24.627H7.177c-0.948,0-1.717-0.769-1.717-1.717s0.769-1.717,1.717-1.717h82.263c0.948,0,1.717,0.769,1.717,1.717   S90.388,24.627,89.439,24.627z"/><path d="M22.976,24.627c-0.054,0-0.108-0.002-0.162-0.007c-0.944-0.089-1.638-0.926-1.549-1.87l1.988-21.193   c0.089-0.944,0.929-1.637,1.87-1.55c0.944,0.089,1.638,0.926,1.549,1.87L24.684,23.07C24.6,23.96,23.852,24.627,22.976,24.627z"/><path d="M39.642,24.627c-0.026,0-0.052,0-0.078-0.001c-0.947-0.042-1.681-0.845-1.639-1.792l0.94-21.193   c0.042-0.947,0.849-1.68,1.792-1.64c0.947,0.042,1.681,0.845,1.639,1.792l-0.94,21.193C41.315,23.907,40.555,24.627,39.642,24.627z   "/><path d="M56.447,24.627c-0.92,0-1.682-0.729-1.714-1.655L53.98,1.777c-0.034-0.947,0.707-1.743,1.654-1.776   c0.94-0.031,1.743,0.707,1.777,1.654l0.752,21.194c0.034,0.947-0.707,1.743-1.654,1.776C56.489,24.627,56.468,24.627,56.447,24.627   z"/><path d="M72.882,24.627c-0.86,0-1.603-0.645-1.703-1.52L68.734,1.913c-0.108-0.941,0.566-1.793,1.509-1.902   c0.938-0.106,1.794,0.567,1.902,1.509l2.444,21.194c0.108,0.941-0.567,1.793-1.509,1.902   C73.015,24.624,72.948,24.627,72.882,24.627z"/><path d="M88.795,100H10.397c-3.65,0-3.65-3.587-3.65-4.938V69.602c0-1.351,0-4.937,3.65-4.937h78.397   c3.649,0,3.649,3.586,3.649,4.937v25.461C92.444,96.413,92.444,100,88.795,100z M10.299,96.563   c0.026,0.002,0.059,0.004,0.098,0.004h78.397c0.039,0,0.071-0.002,0.098-0.004c0.061-0.187,0.118-0.602,0.118-1.5V69.602   c0-0.898-0.058-1.313-0.118-1.5c-0.026-0.002-0.059-0.003-0.098-0.003H10.397c-0.04,0-0.072,0.001-0.098,0.004   c-0.06,0.187-0.118,0.601-0.118,1.499v25.461C10.181,95.961,10.239,96.376,10.299,96.563z"/><path d="M96.868,67.412H3.132c-0.948,0-1.717-0.769-1.717-1.717s0.769-1.717,1.717-1.717h93.736c0.948,0,1.717,0.769,1.717,1.717   S97.816,67.412,96.868,67.412z"/><path d="M14.441,67.412c-0.948,0-1.717-0.769-1.717-1.717V31.693c0-0.948,0.769-1.717,1.717-1.717s1.717,0.769,1.717,1.717v34.002   C16.158,66.644,15.389,67.412,14.441,67.412z"/><path d="M81.761,67.291c-0.948,0-1.717-0.769-1.717-1.717V31.573c0-0.948,0.769-1.717,1.717-1.717s1.717,0.769,1.717,1.717v34.001   C83.478,66.522,82.709,67.291,81.761,67.291z"/><path d="M23.733,99.214c-0.948,0-1.717-0.769-1.717-1.717V66.938c0-0.948,0.769-1.717,1.717-1.717s1.717,0.769,1.717,1.717v30.559   C25.45,98.445,24.682,99.214,23.733,99.214z"/><path d="M40.214,99.328c-0.948,0-1.717-0.769-1.717-1.717V67.053c0-0.948,0.769-1.717,1.717-1.717s1.717,0.769,1.717,1.717v30.559   C41.931,98.56,41.163,99.328,40.214,99.328z"/><path d="M57.726,99.214c-0.948,0-1.717-0.769-1.717-1.717V66.938c0-0.948,0.769-1.717,1.717-1.717s1.717,0.769,1.717,1.717v30.559   C59.442,98.445,58.674,99.214,57.726,99.214z"/><path d="M74.55,99.328c-0.948,0-1.717-0.769-1.717-1.717V67.053c0-0.948,0.769-1.717,1.717-1.717s1.717,0.769,1.717,1.717v30.559   C76.267,98.56,75.498,99.328,74.55,99.328z"/></g><text x="0" y="115" fill="#000000" font-size="5px" font-weight="bold" font-family="'Helvetica Neue', Helvetica, Arial-Unicode, Arial, Sans-serif">Created by Fajar Wahyu Pribadi</text><text x="0" y="120" fill="#000000" font-size="5px" font-weight="bold" font-family="'Helvetica Neue', Helvetica, Arial-Unicode, Arial, Sans-serif">from the Noun Project</text></svg>